<svg width="45" height="45" viewBox="0 0 45 45" fill="none" xmlns="http://www.w3.org/2000/svg">
<g id="BMW Logo White 2" clip-path="url(#clip0_131_12)">
<path id="Vector" d="M22.5 35.8335C29.8639 35.8335 35.8335 29.8639 35.8335 22.5C35.8335 15.1361 29.8639 9.1665 22.5 9.1665C15.1361 9.1665 9.1665 15.1361 9.1665 22.5C9.1665 29.8639 15.1361 35.8335 22.5 35.8335Z" fill="white"/>
<g id="BMW-logo-grey-fallback-53px">
<g id="BMW-logo">
<g id="BMW-logo-fallback">
<g id="BMW Grey-Colour RGB-2">
<g id="BMW Grey-Colour RGB">
<path id="Shape" d="M22.5 0C10.0737 0 0 10.0737 0 22.5C0 34.9263 10.0737 45 22.5 45C34.9263 45 45 34.9263 45 22.5C45 10.0737 34.9263 0 22.5 0ZM43.5366 22.5C43.5366 34.1181 34.119 43.5366 22.5 43.5366C10.881 43.5366 1.4634 34.1181 1.4634 22.5C1.4634 10.8819 10.8819 1.4634 22.5 1.4634C34.1181 1.4634 43.5366 10.8828 43.5366 22.5Z" fill="white"/>
<path id="Shape_2" d="M22.5 9.1665V9.8973C29.448 9.8973 35.1027 15.5502 35.1027 22.5H35.8335C35.8335 15.1371 29.8638 9.1665 22.5 9.1665ZM22.5 35.1018C15.552 35.1018 9.8973 29.4489 9.8973 22.4991H9.1665C9.1665 29.862 15.1362 35.8326 22.5 35.8326" fill="white"/>
<g id="Group">
<path id="W" d="M33.2731 13.005C33.5782 13.3308 34.0183 13.8555 34.2658 14.1741L38.818 11.3049C38.5903 11.0097 38.2285 10.5606 37.9576 10.2447L35.0749 12.1374L34.8778 12.3057L35.0245 12.0933L36.2971 9.57056L35.3971 8.67687L32.8555 9.94046L32.6413 10.0863L32.8114 9.89096L34.7185 7.02986C34.3828 6.74636 34.0606 6.48626 33.6493 6.17126L30.7603 10.6875C31.1266 10.9674 31.609 11.3778 31.9168 11.6577L34.6366 10.2555L34.8112 10.1286L34.6834 10.3023L33.2731 13.0059V13.005Z" fill="white"/>
<path id="M" d="M22.944 7.28099L24.1878 4.51439L24.267 4.26869L24.2445 4.52429L24.375 8.22149C24.8115 8.26199 25.2615 8.32229 25.7061 8.39609L25.5036 2.91959C24.8826 2.85119 24.2643 2.80259 23.6451 2.77649L22.4202 5.79689L22.377 6.02099L22.3338 5.79689L21.1098 2.77649C20.4915 2.80259 19.8723 2.85119 19.2513 2.91959L19.0488 8.39609C19.4925 8.32229 19.9434 8.26379 20.3799 8.22149L20.5104 4.52429L20.4879 4.26869L20.5671 4.51439L21.8109 7.28099H22.944Z" fill="white"/>
<path id="B_22d" d="M12.8845 11.6451C13.6036 10.8927 14.0104 10.0242 13.2913 9.19441C12.8998 8.74441 12.2428 8.64541 11.6983 8.86771L11.6443 8.88841L11.6614 8.84071C11.7424 8.62651 11.7937 7.94431 11.2078 7.47271C10.9225 7.24321 10.5643 7.15771 10.2016 7.19461C9.52659 7.26301 9.00639 7.72111 7.59249 9.28711C7.16589 9.75961 6.54399 10.5048 6.17139 10.9881L10.0558 14.6475C11.3428 13.2327 11.8675 12.7062 12.8827 11.6442L12.8845 11.6451ZM7.81569 10.7496C8.59779 9.79921 9.42939 8.93701 9.80649 8.59591C9.92529 8.48791 10.0549 8.38081 10.2124 8.33851C10.4671 8.26921 10.7308 8.44921 10.7902 8.70841C10.8496 8.96941 10.6849 9.21781 10.5004 9.42211C10.0864 9.88561 8.56899 11.4615 8.56899 11.4615L7.81569 10.7487V10.7496ZM9.33669 12.1833C9.33669 12.1833 10.8145 10.6317 11.2969 10.1358C11.4886 9.93871 11.6119 9.81991 11.7433 9.75511C11.9134 9.67231 12.1006 9.65521 12.2671 9.76591C12.4309 9.87481 12.5065 10.0629 12.4651 10.2492C12.4165 10.4706 12.2338 10.6821 12.0835 10.8441C11.8801 11.061 10.1278 12.9231 10.1251 12.9258L9.33759 12.1842L9.33669 12.1833Z" fill="white"/>
</g>
<g id="Group_2">
<path id="Path" d="M22.5 9.1665V22.5H9.1665C9.1665 15.1317 15.1308 9.1665 22.5 9.1665Z" fill="#0066B1"/>
<path id="Path_2" d="M35.8335 22.5C35.8335 29.8683 29.8692 35.8335 22.5 35.8335V22.5H35.8335Z" fill="#0066B1"/>
</g>
</g>
</g>
</g>
</g>
</g>
</g>
<defs>
<clipPath id="clip0_131_12">
<rect width="45" height="45" fill="white"/>
</clipPath>
</defs>
</svg>
